<svg xmlns="http://www.w3.org/2000/svg" width="512" height="256" viewBox="0 0 512 256" shape-rendering="crispEdges">
<!-- platforms --> <g transform="translate(8 8)"><rect y="18" width="112" height="14" rx="4" fill="#5a3928"/><rect width="112" height="18" rx="4" fill="#b8753d"/><path d="M10 5h35m18 0h35" stroke="#e0a15a" stroke-width="4"/><rect x="12" y="32" width="12" height="9" fill="#70462f"/><rect x="88" y="32" width="12" height="9" fill="#70462f"/></g>
<!-- spring --> <g transform="translate(136 8)"><rect y="43" width="56" height="10" rx="3" fill="#6d432c"/><rect x="5" y="35" width="46" height="8" fill="#db5146"/><path d="M12 35l8-12 8 12 8-12 8 12" fill="none" stroke="#d4d7df" stroke-width="5"/><rect y="51" width="56" height="5" fill="#4a3130"/></g>
<!-- spikes --> <g transform="translate(200 8)"><path d="M0 55L9 20l10 35 10-35 10 35 10-35 9 35" fill="#bfc8d4" stroke="#354152" stroke-width="4"/><rect y="55" width="58" height="9" fill="#57392d"/><rect y="64" width="58" height="4" fill="#8b5737"/></g>
<!-- moving roller --> <g transform="translate(272 8)"><rect y="22" width="112" height="20" rx="5" fill="#364455"/><rect x="8" y="26" width="96" height="12" fill="#5c6e82"/><circle cx="20" cy="32" r="5" fill="#e0a13e"/><circle cx="92" cy="32" r="5" fill="#e0a13e"/><path d="M15 32h82" stroke="#b8c4d0" stroke-width="3"/></g>
<!-- crates --> <g transform="translate(400 8)"><rect width="48" height="48" fill="#a96839" stroke="#543b2b" stroke-width="5"/><path d="M6 6l36 36M42 6L6 42" stroke="#d09252" stroke-width="5"/><rect x="12" y="12" width="24" height="24" fill="none" stroke="#70462f" stroke-width="4"/></g>
<!-- hanging mace --> <g transform="translate(8 92)"><path d="M25 0v28" stroke="#8b8f9a" stroke-width="4"/><circle cx="25" cy="45" r="15" fill="#596575" stroke="#303946" stroke-width="4"/><path d="M25 27v-6M10 45H2M48 45h-8M14 34l-6-6M36 34l6-6M14 56l-6 6M36 56l6 6" stroke="#d3d9e0" stroke-width="5"/></g>
<!-- swinging log --> <g transform="translate(72 92)"><rect x="8" y="18" width="105" height="28" rx="8" fill="#875335" stroke="#4f3628" stroke-width="5"/><circle cx="30" cy="32" r="4" fill="#c78a4d"/><circle cx="90" cy="32" r="4" fill="#c78a4d"/><path d="M20 18l-7-18M96 18l7-18" stroke="#c8a06d" stroke-width="4"/></g>
<!-- breakable barrel --> <g transform="translate(200 92)"><path d="M14 8h44l8 48H6z" fill="#a96a3a" stroke="#523827" stroke-width="5"/><path d="M9 22h50M7 43h54" stroke="#70462f" stroke-width="5"/><path d="M30 8v48" stroke="#d79a55" stroke-width="4"/></g>
<!-- fire column --> <g transform="translate(288 92)"><path d="M18 58V32Q18 8 32 2q8 13 4 24 13-10 14 12v20z" fill="#f15b25" stroke="#7e3021" stroke-width="4"/><path d="M27 55V34q8-8 8-17 10 13 3 24 7-4 9 14z" fill="#ffd34f"/></g>
<!-- ice column --> <g transform="translate(352 92)"><path d="M8 58V20h48v38" fill="#61c5e5" stroke="#345b79" stroke-width="5"/><path d="M10 20l8 20 8-12 8 15 9-18 9 12 6-17" fill="#d7fbff"/><path d="M17 42l8 16M33 40l-4 18M48 43l-7 15" stroke="#b5eff8" stroke-width="4"/></g>
<!-- ladder --> <g transform="translate(432 92)"><path d="M8 0v64M48 0v64" stroke="#9d6136" stroke-width="9"/><path d="M8 10h40M8 24h40M8 38h40M8 52h40" stroke="#c78243" stroke-width="6"/></g>
<!-- saw platform --> <g transform="translate(8 176)"><rect x="0" y="25" width="112" height="14" rx="3" fill="#3d4a59"/><path d="M10 25l7-18 7 18 7-18 7 18 7-18 7 18 7-18 7 18 7-18 7 18 7-18 7 18" fill="#d7e0e8" stroke="#586575" stroke-width="3"/><circle cx="20" cy="42" r="6" fill="#d0a044"/><circle cx="92" cy="42" r="6" fill="#d0a044"/></g>
</svg>