<svg xmlns="http://www.w3.org/2000/svg" width="512" height="256" viewBox="0 0 512 256" shape-rendering="crispEdges">
<defs><pattern id="d" width="32" height="32" patternUnits="userSpaceOnUse"><rect width="32" height="32" fill="#70462f"/><path d="M0 8h12v5H5v7h11v6H0M20 0h12v8h-6v7h6v9h-9v-6h-7v-7h4z" fill="#8d5835"/><path d="M0 0h32v8H0z" fill="#65a94d"/><path d="M0 0h32v3H0z" fill="#9bd05d"/></pattern></defs>
<rect width="512" height="256" fill="none"/>
<!-- grass terrain --> <rect x="0" y="0" width="64" height="64" fill="url(#d)"/><rect x="72" y="0" width="64" height="64" fill="#6b7890"/><path d="M72 18l10-10 10 10 10-12 18 18 10-8v48H72z" fill="#8a96aa"/><path d="M72 0h64v12H72z" fill="#79a95b"/><rect x="144" width="64" height="64" fill="#86b95b"/><path d="M144 16h64v48h-64z" fill="#5a9b48"/><path d="M144 16l14-10 9 10 12-8 12 8 13-9 8 9v10h-68z" fill="#a4d66b"/>
<!-- stone --> <rect x="216" width="64" height="64" fill="#657184"/><path d="M216 18h14v-8h18v12h16v-7h16v18h-64zM216 45h22v-9h14v12h28v16h-64z" fill="#8b96a8"/><path d="M216 2h64v6h-64z" fill="#b0bac8"/>
<!-- ice --> <rect x="288" width="64" height="64" fill="#7fd8f1"/><path d="M288 16l15-10 12 11 12-9 25 14v42h-64z" fill="#bdefff"/><path d="M300 18l12 12-9 14M334 15l-10 15 13 10" fill="none" stroke="#65bfe0" stroke-width="5"/>
<!-- lava --> <rect x="360" width="64" height="64" fill="#a93422"/><path d="M360 15l13 9 9-14 11 10 10-12 11 13 10-7v50h-64z" fill="#f06a24"/><path d="M372 22l9 5 4-8 9 10 9-7 9 9" fill="none" stroke="#ffd24b" stroke-width="4"/>
<!-- snow --> <rect x="432" width="64" height="64" fill="#a8d9e9"/><path d="M432 19l12-11 10 9 11-12 12 10 19-7v56h-64z" fill="#e7fbff"/><path d="M438 38h14l8-9 10 10 9-8 17 8v25h-58z" fill="#9ccbdc"/>
<!-- corners/edges --> <path d="M0 80h64v64H0z" fill="url(#d)"/><path d="M0 80h64v12H0z" fill="#4d8d40"/><path d="M72 80h64v64H72z" fill="url(#d)"/><path d="M72 80h64v12H72z" fill="#9bd05d"/><path d="M144 80h64v64h-64z" fill="#4f8d42"/><path d="M144 80h64v12h-64z" fill="#b2dd6d"/>
<!-- decorative blocks --> <g transform="translate(0 160)"><rect width="64" height="64" fill="#4f8d42"/><path d="M0 22h64v42H0z" fill="#5b3c2a"/><path d="M8 30h10v8H8m20-5h13v9H28m17 10h12v9H45" fill="#9a6038"/><path d="M0 20h64v9H0z" fill="#72b94f"/></g><g transform="translate(72 160)"><rect width="64" height="64" fill="#4c5668"/><path d="M6 10h21v16H6m28-10h24v20H34M10 35h17v19H10m23 5h25V39H33" fill="#78869b"/><path d="M6 10h21M34 16h24M10 35h17" stroke="#b3c0cf" stroke-width="4"/></g><g transform="translate(144 160)"><rect width="64" height="64" fill="#55372a"/><path d="M0 12h64v52H0z" fill="#79503a"/><path d="M8 20h15v12H8m25-12h23v12H33M18 42h22v12H18" fill="#986445"/><path d="M0 5h64v8H0z" fill="#6aa64b"/></g><g transform="translate(216 160)"><rect width="64" height="64" fill="#66b4d1"/><path d="M8 8l18 18-18 18 18 18M42 8L24 26l18 18-18 18" fill="none" stroke="#d7fbff" stroke-width="5"/></g>
</svg>