<svg xmlns="http://www.w3.org/2000/svg" width="256" height="384" viewBox="0 0 256 384" shape-rendering="crispEdges"><defs><g id="slime"><path d="M10 48Q10 23 32 20Q54 23 54 48Z" fill="#58b85a" stroke="#173c2b" stroke-width="3"/><rect x="20" y="32" width="6" height="6" fill="#17241d"/><rect x="38" y="32" width="6" height="6" fill="#17241d"/><rect x="23" y="42" width="20" height="3" fill="#2f733b"/></g><g id="moth"><ellipse cx="32" cy="35" rx="8" ry="12" fill="#e5b23d" stroke="#5b3519" stroke-width="3"/><path d="M26 34Q8 14 6 34Q9 49 26 40M38 34Q56 14 58 34Q55 49 38 40" fill="#b8e8f1" stroke="#315b68" stroke-width="3"/><rect x="29" y="31" width="6" height="5" fill="#1d2630"/></g><g id="mush"><path d="M10 34Q10 14 32 12Q54 14 54 34Z" fill="#e65d45" stroke="#4b2c27" stroke-width="3"/><circle cx="22" cy="22" r="3" fill="#ffe6a3"/><circle cx="40" cy="19" r="4" fill="#ffe6a3"/><path d="M22 34v14q10 8 20 0V34Z" fill="#e9c59b" stroke="#4b2c27" stroke-width="3"/><rect x="27" y="38" width="4" height="4" fill="#25313a"/><rect x="36" y="38" width="4" height="4" fill="#25313a"/></g><g id="beetle"><ellipse cx="32" cy="36" rx="21" ry="14" fill="#7d4fc1" stroke="#29203c" stroke-width="3"/><path d="M32 22v28M15 29l-8-6M49 29l8-6M14 41l-8 6M50 41l8 6" stroke="#29203c" stroke-width="4"/><circle cx="24" cy="34" r="3" fill="#ffdb58"/><circle cx="40" cy="34" r="3" fill="#ffdb58"/></g><g id="golem"><path d="M13 50V25L23 14H41L51 25V50Z" fill="#7f8d98" stroke="#26323b" stroke-width="3"/><path d="M20 28h24M18 39h28M26 15v35M39 15v35" stroke="#52616a" stroke-width="3"/><rect x="21" y="31" width="6" height="5" fill="#f2b84b"/><rect x="37" y="31" width="6" height="5" fill="#f2b84b"/></g><g id="wisp"><path d="M32 10Q51 21 47 39Q43 53 32 57Q21 53 17 39Q13 21 32 10Z" fill="#ed6a4a" stroke="#4a2528" stroke-width="3"/><path d="M23 45Q32 52 41 45" fill="none" stroke="#ffb44a" stroke-width="4"/><circle cx="26" cy="30" r="3" fill="#fff0a8"/><circle cx="38" cy="30" r="3" fill="#fff0a8"/></g></defs><g transform="translate(0 0)"><use href="#slime"/></g><g transform="translate(64 0)"><use href="#slime" transform="translate(1 -2) scale(1 .95)"/></g><g transform="translate(128 0)"><use href="#slime" transform="translate(2 1) scale(.96 1.04)"/></g><g transform="translate(192 0)"><use href="#slime"/></g><g transform="translate(0 64)"><use href="#moth"/></g><g transform="translate(64 64)"><use href="#moth" transform="translate(0 -3) rotate(-4 32 35)"/></g><g transform="translate(128 64)"><use href="#moth" transform="translate(0 1) scale(.94 1.05)"/></g><g transform="translate(192 64)"><use href="#moth" transform="translate(0 -2) rotate(4 32 35)"/></g><g transform="translate(0 128)"><use href="#mush"/></g><g transform="translate(64 128)"><use href="#mush" transform="translate(2 -1)"/></g><g transform="translate(128 128)"><use href="#mush" transform="translate(0 1) scale(1.04 .96)"/></g><g transform="translate(192 128)"><use href="#mush"/></g><g transform="translate(0 192)"><use href="#beetle"/></g><g transform="translate(64 192)"><use href="#beetle" transform="translate(0 -2) rotate(-3 32 36)"/></g><g transform="translate(128 192)"><use href="#beetle" transform="translate(0 1) scale(1.03 .97)"/></g><g transform="translate(192 192)"><use href="#beetle" transform="translate(0 -1) rotate(3 32 36)"/></g><g transform="translate(0 256)"><use href="#golem"/></g><g transform="translate(64 256)"><use href="#golem" transform="translate(1 -1)"/></g><g transform="translate(128 256)"><use href="#golem" transform="translate(0 1)"/></g><g transform="translate(192 256)"><use href="#golem" transform="translate(-1 0)"/></g><g transform="translate(0 320)"><use href="#wisp"/></g><g transform="translate(64 320)"><use href="#wisp" transform="translate(1 -3) scale(.96 1.04)"/></g><g transform="translate(128 320)"><use href="#wisp" transform="translate(0 1)"/></g><g transform="translate(192 320)"><use href="#wisp" transform="translate(-1 -2) scale(1.04 .96)"/></g></svg>